inDegrees=no
num_controls=7
num_derivatives=13
num_iterations=37
num_multipliers=7
num_parameters=0
num_slacks=7
num_states=26
objective=0.426558
objective_accelerations=0.058800
objective_balance=0.001146
objective_effort=0.015532
objective_height=0.345128
objective_ligament=0.005951
solver_duration=545.586463
status=Solve_Succeeded
success=true
DataType=double
version=3
OpenSimVersion=4.5
endheader
time	/jointset/ground_pelvis/pelvis_tilt/value	/jointset/ground_pelvis/pelvis_tx/value	/jointset/ground_pelvis/pelvis_ty/value	/jointset/hip_l/hip_flexion_l/value	/jointset/hip_l/hip_adduction_l/value	/jointset/hip_l/hip_rotation_l/value	/jointset/back/lumbar_extension/value	/jointset/patellofemoral_l/patellar_flexion_l/value	/jointset/knee_l/knee_flexion_l/value	/jointset/knee_l/knee_adduction_l/value	/jointset/knee_l/knee_rotation_l/value	/jointset/ankle_l/ankle_angle_l/value	/jointset/subtalar_l/subtalar_angle_l/value	/jointset/ground_pelvis/pelvis_tilt/speed	/jointset/ground_pelvis/pelvis_tx/speed	/jointset/ground_pelvis/pelvis_ty/speed	/jointset/hip_l/hip_flexion_l/speed	/jointset/hip_l/hip_adduction_l/speed	/jointset/hip_l/hip_rotation_l/speed	/jointset/back/lumbar_extension/speed	/jointset/patellofemoral_l/patellar_flexion_l/speed	/jointset/knee_l/knee_flexion_l/speed	/jointset/knee_l/knee_adduction_l/speed	/jointset/knee_l/knee_rotation_l/speed	/jointset/ankle_l/ankle_angle_l/speed	/jointset/subtalar_l/subtalar_angle_l/speed	/forceset/tau_hip_flexion_l	/forceset/tau_hip_adduction_l	/forceset/tau_hip_rotation_l	/forceset/tau_knee_flexion_l	/forceset/tau_ankle_angle_l	/forceset/tau_subtalar_angle_l	/forceset/tau_lumbar_extension	lambda_cid13_p0	lambda_cid13_p1	lambda_cid13_p2	lambda_cid13_p3	lambda_cid13_p4	lambda_cid13_p5	lambda_cid14_p0	/jointset/ground_pelvis/pelvis_tilt/accel	/jointset/ground_pelvis/pelvis_tx/accel	/jointset/ground_pelvis/pelvis_ty/accel	/jointset/hip_l/hip_flexion_l/accel	/jointset/hip_l/hip_adduction_l/accel	/jointset/hip_l/hip_rotation_l/accel	/jointset/back/lumbar_extension/accel	/jointset/patellofemoral_l/patellar_flexion_l/accel	/jointset/knee_l/knee_flexion_l/accel	/jointset/knee_l/knee_adduction_l/accel	/jointset/knee_l/knee_rotation_l/accel	/jointset/ankle_l/ankle_angle_l/accel	/jointset/subtalar_l/subtalar_angle_l/accel	gamma_cid13_p0	gamma_cid13_p1	gamma_cid13_p2	gamma_cid13_p3	gamma_cid13_p4	gamma_cid13_p5	gamma_cid14_p0
1	-0.4539395909800532	-0.002604960324226368	0.5920041676991846	1.708338839225163	-0.3463309833728073	0.1357650895211654	-0.4362085869614964	1.514011997343966	1.514011997344006	0.06288004536871174	-0.1743938971380059	0.4348934614035121	0.249625134678254	-0.1391231717436337	0.003172597097577901	0.03886363046632198	0.006280693286468471	-0.00184383597369335	-0.05652108768084922	-0.002825617496482676	-0.1666747644088831	-0.1666747644088825	-0.01145293730184318	-0.0005969994483582194	-0.04833938575607107	-0.0321909542097543	-0.2379338461046863	0.08502135608507171	-0.01291536514276828	-0.2950624817067399	-0.01187341101270321	-0.01705695555929808	0.2079182374559291	-40.12500349618666	25.56749113672333	-17.07493973156177	2.818913712099139	-543.3365150336423	-28.0760846680623	-0.0237029589317512	1.420790493612688	0.2697811978689676	2.028672743463395	-6.682138080743244	-0.2453391342033012	-1.566903108291316	-0.01229373750634502	-5.611049537351446	-5.611049537351462	-0.8842210610724109	-0.03314443318630635	-0.8349086756114378	-0.8915890616086949	-3.530872833189331e-09	-1.362478856397186e-07	-7.135813938903956e-08	-1.048150934902772e-08	-7.66504459366115e-09	-1.796487103984384e-07	6.515333335914548e-09
1.01	-0.4552604932007784	-0.002559731653499529	0.5924940316349271	1.708068595490057	-0.3463611271122664	0.1351235884875069	-0.4362364090322784	1.512065015792086	1.512065015792081	0.06272009085441553	-0.1744000949679466	0.4343682469573795	0.249259535321357	-0.1250468740448664	0.005880827786842591	0.05910105946209664	-0.06032338278049046	-0.004180274704430185	-0.07177451005821908	-0.002726217333389227	-0.2227231682400881	-0.2227231682400875	-0.02053438939765145	-0.0006449449263824794	-0.05671955823631302	-0.04092513221985385	-0.2384149244141334	0.08498935169039568	-0.01292415982911764	-0.2940316095773042	-0.01235626907360002	-0.01698851444190556	0.2081936717157207	-40.23221289522359	25.49272574588386	-16.99013042260841	2.745045986226469	-543.1919751828048	-28.0193062365201	-0.02372150214730556	1.402609280209559	0.2724938415613202	2.020061035931541	-6.648633700834562	-0.2270841378185142	-1.503875969081167	0.02294379458861621	-5.601980771103755	-5.601980771103781	-0.919582520588874	0.008992891019308748	-0.84198827487746	-0.8637249754327431	-3.593022279373397e-09	-1.744062543634074e-07	-9.768595397463748e-08	-1.878381813156189e-08	-1.175211469301732e-08	-2.24707729780461e-07	8.104572484706525e-09
1.02	-0.4564403204700889	-0.002487190708459388	0.5931860264722868	1.707132492728027	-0.3464144928180985	0.1343296903967509	-0.4362628597210989	1.509557501208873	1.509557501208838	0.06246942677185392	-0.1744068497534402	0.4337587474383147	0.2488067156234143	-0.1109081814580396	0.008635051960238308	0.0792898107898492	-0.1268911120939328	-0.006488229247547292	-0.08700049910044501	-0.002551341115392927	-0.2787813706752482	-0.2787813706752474	-0.0295948509636198	-0.0007083905592152331	-0.06519640034243714	-0.04963502241884171	-0.2388960027236608	0.08495734729568893	-0.01293295451534716	-0.2930007374478594	-0.01283912713448617	-0.01692007332455879	0.2084691059754225	-40.34151623799672	25.41513833264738	-16.90122871995048	2.661280621235297	-543.1570912505078	-27.96710343427648	-0.0237422842308317	1.433269471224663	0.2789798946950954	2.018937209858974	-6.67486873003989	-0.2396422966792719	-1.561416441262462	0.002801473475373165	-5.613009258142481	-5.613009258142456	-0.880022955104402	-0.03624446414786398	-0.8542426007880103	-0.886731499386306	-3.645370218004143e-09	-2.105242842847517e-07	-1.221452235991996e-07	-2.660984872921881e-08	-1.550773068413425e-08	-2.659257766544165e-07	9.425162394913789e-09
1.03	-0.457478356406013	-0.002386835578322794	0.5940795817725231	1.705530981270995	-0.3464907064512255	0.1333836440824848	-0.4362871053876718	1.506489488292419	1.506489488292436	0.06212846634397639	-0.1744141840939539	0.4330639732458927	0.2482670730450613	-0.0966791858895399	0.01144789652374712	0.09940489371452177	-0.1933971189400188	-0.008741745156683663	-0.102201218675307	-0.002277608418417003	-0.3348097368757815	-0.3348097368757812	-0.03858026466357346	-0.0007488018247049186	-0.07377675467717301	-0.05827557220505193	-0.2392480110592017	0.08496163833577497	-0.01291590849225176	-0.2916808269815311	-0.0133729259186576	-0.01683084688508777	0.2086785417267386	-40.44221169035548	25.31264500258564	-16.79194070485126	2.56406089132507	-542.842341793847	-27.89218136601835	-0.02376943533896173	1.420687072332892	0.284218171873485	2.005336627599636	-6.636358210867499	-0.2162679923133518	-1.498275980287068	0.04268673823564562	-5.59603109668147	-5.596031096681597	-0.9052723173060668	0.01346701257042048	-0.8626911912695273	-0.8499716532726486	-3.697618141251691e-09	-2.466214944223985e-07	-1.46585426438445e-07	-3.443101934539739e-08	-1.925996449047323e-08	-3.071046299313508e-07	1.074301098635998e-08
1.04	-0.4583735078917301	-0.002257995715612734	0.5951737964607715	1.703264831435682	-0.3465890675943059	0.1322858153195446	-0.4363080082131349	1.502861535554824	1.502861535554914	0.06169815743112368	-0.1744216412530658	0.4322828436418272	0.247641573981839	-0.08233129141420706	0.01433199847493133	0.1194216883923871	-0.2598187877450844	-0.01091773123712335	-0.1173569888377292	-0.001882772904329091	-0.3907693349032311	-0.3907693349032313	-0.04746454795814025	-0.0007329542773974376	-0.08246748267004263	-0.06680631939263504	-0.2396000193948599	0.08496592937586568	-0.01289886246919291	-0.2903609165151943	-0.01390672470280226	-0.01674162044559134	0.2088879774779315	-40.54529052242736	25.2074374272518	-16.67864268918419	2.45738245269347	-542.6390070314834	-27.82259839962038	-0.02379892638432498	1.457049252591364	0.2932313722301028	1.999279560497532	-6.658001121835789	-0.2241363309398508	-1.552426558774414	0.02702203689923748	-5.599255623525722	-5.59925562352572	-0.8597968740270143	-0.0249927015882867	-0.8763173324148883	-0.8647709796608275	-4.251876210579633e-09	-2.811754028913491e-07	-1.637416786852318e-07	-4.166758876371783e-08	-2.306549324918304e-08	-3.376625061481013e-07	1.029556180560192e-08
1.05	-0.4591245933918778	-0.002099900059054898	0.5964675796822304	1.700335098893611	-0.346708801372872	0.1310366922696441	-0.4363240153342975	1.498674507959078	1.498674507959123	0.06117955411011871	-0.174428706462055	0.431414253691528	0.2469313339930559	-0.06786685757289104	0.01730491592318186	0.1393079048254612	-0.3260930666639154	-0.01301704244447302	-0.1324483751148856	-0.001264148724497663	-0.4466070454622312	-0.4466070454622316	-0.05624433234686164	-0.0006757927963473442	-0.09126876244306002	-0.07522306997720654	-0.2398858067799042	0.08499855594580161	-0.01285896004336126	-0.2886978507434279	-0.01452847389347605	-0.0166329066384954	0.2090944203197439	-40.6513580166264	25.07803406219711	-16.54291953805556	2.325395151196286	-542.1642357705302	-27.72103234412977	-0.02383390563916644	1.443981840922353	0.3019795438269173	1.979229610628325	-6.606944579243902	-0.2009987075572132	-1.484620353837476	0.08745800479603755	-5.571659908084587	-5.571659908084658	-0.8853260560965678	0.02165934550065095	-0.8847868857799638	-0.8272637930250327	-4.821822096972586e-09	-3.156810831831529e-07	-1.806703074760043e-07	-4.88858893946052e-08	-2.687268747515444e-08	-3.678884768317213e-07	9.792947069462485e-09
1.06	-0.4597304662754166	-0.00191154370547426	0.5979594124532027	1.69674366290186	-0.3468491623019029	0.1296372302186625	-0.4363322011345009	1.493929977030542	1.493929977030562	0.06057350157822183	-0.174435082301737	0.4304571002262826	0.2461374991593925	-0.05328876809073405	0.02038413787949132	0.1590315982952032	-0.3921594776762398	-0.01504316132881797	-0.1474247890580898	-0.0003185086938110888	-0.5022700014611384	-0.5022700014611389	-0.06495439012766023	-0.0005950804133387889	-0.1001801856574775	-0.08352528836856958	-0.2401715941650726	0.08503118251576851	-0.0128190576177093	-0.2870347849716551	-0.01515022308411432	-0.01652419283132298	0.2093008631614311	-40.76018499747514	24.94606954047739	-16.4033104505885	2.184319499523994	-541.8029873505924	-27.62585754790653	-0.0238713382142724	1.479780380759627	0.3144922738418203	1.966774967831104	-6.61642754053443	-0.2094978663388253	-1.529432091983908	0.09242520707179977	-5.564304711507179	-5.564304711507162	-0.8458515524424449	-0.0202825211964529	-0.8983460206950148	-0.8418645410190803	-5.250175612579738e-09	-3.483278853727148e-07	-1.958164868503655e-07	-5.575519504066868e-08	-2.997556190448895e-08	-3.948415795122804e-07	9.08077315581162e-09
1.07	-0.4601902512796517	-0.001691816596563837	0.5996475246186471	1.692493115265397	-0.3470094212265512	0.1280886480616343	-0.4363286198530212	1.48862988991187	1.488629889911911	0.05988071029090932	-0.1744405866578889	0.4294102549289602	0.2452612109453759	-0.03867704663703999	0.02358370837831678	0.1785492595120366	-0.4578633749653978	-0.01699686914566491	-0.1622591752167256	0.001158829649475871	-0.557698309459204	-0.5576983094592055	-0.07359786626692935	-0.0005059453855962091	-0.1092093986460402	-0.09171367312437521	-0.2403954609631737	0.08508520005052879	-0.01275890499839793	-0.2850025192801924	-0.01587983034534373	-0.01639207893668393	0.209516830070099	-40.87711311404701	24.78747248498814	-16.2390228971768	2.021569581791925	-541.1540615995164	-27.50062557991849	-0.02391504102084504	1.45054397500246	0.3260404910086888	1.938018754822095	-6.53437174657218	-0.1865049652377597	-1.455588830458899	0.1939978512103937	-5.524728583182608	-5.52472858318284	-0.8727270505659067	0.02342344546184628	-0.9083062331137433	-0.8044371493058481	-5.670997619102538e-09	-3.808758110674766e-07	-2.108678550855559e-07	-6.260593712370962e-08	-3.304097251485342e-08	-4.216205934692724e-07	8.357452477399507e-09
1.08	-0.4605041838798897	-0.001439423572044574	0.6015295648075016	1.687588128471335	-0.3471888567745489	0.1263926926525063	-0.4363065432478113	1.482776992765373	1.482776992765447	0.05910165796099023	-0.1744452172776356	0.4282724980427101	0.2443036165425115	-0.02411828729020597	0.02691732100125898	0.1978172029773918	-0.5230473091931943	-0.01887848599772362	-0.1768994394815809	0.003380556122883772	-0.6128320070263344	-0.6128320070263371	-0.08220659864207229	-0.0004203331297672232	-0.1183625034416847	-0.09978652613796636	-0.2406193277613501	0.08513921758531345	-0.01269875237923325	-0.2829702535887252	-0.01660943760654799	-0.01625996504198654	0.2097327969786934	-40.99720831116508	24.62645220883209	-16.07094745717799	1.849892143462494	-540.6208291637793	-27.38342584715195	-0.02396135824504745	1.469187959387688	0.3413006986651022	1.916831417535479	-6.512434928262091	-0.1950796733811047	-1.490607713227702	0.2413028330956283	-5.505382625320161	-5.505382625320185	-0.8389027996172088	-0.02098707557903818	-0.9231243821115015	-0.8187581925761348	-6.12135299845834e-09	-4.109870858461707e-07	-2.260276378229616e-07	-6.834094069388793e-08	-3.57268378354425e-08	-4.462882450686506e-07	7.923136519860932e-09
